<mxfile host="app.diagrams.net" agent="Mozilla/5.0 (Windows NT 10.0; Win64; x64) AppleWebKit/537.36 (KHTML, like Gecko) Chrome/140.0.0.0 Safari/537.36" version="28.2.7">
  <diagram name="페이지-1" id="dK5g12jTFmuMBhpyl0iw">
    <mxGraphModel dx="1501" dy="790" grid="1" gridSize="10" guides="1" tooltips="1" connect="1" arrows="1" fold="1" page="1" pageScale="1" pageWidth="3300" pageHeight="4681" math="0" shadow="0">
      <root>
        <mxCell id="0" />
        <mxCell id="1" parent="0" />
        <mxCell id="YMv8TizBlmgqIoL7gUsq-75" value="" style="rounded=1;whiteSpace=wrap;html=1;strokeWidth=5;strokeColor=light-dark(#d6b656, #ededed);" parent="1" vertex="1">
          <mxGeometry x="1460" y="1060" width="1155" height="120" as="geometry" />
        </mxCell>
        <mxCell id="i29WpQQr9Gu0z_t5lh4E-20" value="0" style="rounded=1;whiteSpace=wrap;html=1;strokeWidth=5;strokeColor=light-dark(#647687, #ededed);" parent="1" vertex="1">
          <mxGeometry x="1775" y="1330" width="1095" height="1100" as="geometry" />
        </mxCell>
        <mxCell id="i29WpQQr9Gu0z_t5lh4E-1" value="" style="rounded=1;whiteSpace=wrap;html=1;strokeColor=light-dark(#9e9cb7, #ededed);strokeWidth=5;" parent="1" vertex="1">
          <mxGeometry x="240" y="1400" width="685" height="650" as="geometry" />
        </mxCell>
        <mxCell id="i29WpQQr9Gu0z_t5lh4E-13" value="" style="rounded=1;whiteSpace=wrap;html=1;strokeColor=light-dark(#d5968d, #ededed);strokeWidth=5;" parent="1" vertex="1">
          <mxGeometry x="1105" y="1590" width="500" height="540" as="geometry" />
        </mxCell>
        <mxCell id="YMv8TizBlmgqIoL7gUsq-6" style="edgeStyle=orthogonalEdgeStyle;rounded=0;orthogonalLoop=1;jettySize=auto;html=1;exitX=0.5;exitY=0;exitDx=0;exitDy=0;endArrow=open;endFill=0;dashed=1;" parent="1" source="gUjudwzjFV2ijySRPbhX-2" target="i29WpQQr9Gu0z_t5lh4E-15" edge="1">
          <mxGeometry relative="1" as="geometry">
            <Array as="points">
              <mxPoint x="580" y="1454" />
              <mxPoint x="580" y="1420" />
              <mxPoint x="995" y="1420" />
              <mxPoint x="995" y="1710" />
            </Array>
          </mxGeometry>
        </mxCell>
        <mxCell id="gUjudwzjFV2ijySRPbhX-2" value="KlarfData" style="swimlane;fontStyle=1;align=center;verticalAlign=top;childLayout=stackLayout;horizontal=1;startSize=26;horizontalStack=0;resizeParent=1;resizeParentMax=0;resizeLast=0;collapsible=1;marginBottom=0;whiteSpace=wrap;html=1;fillColor=#d0cee2;strokeColor=#56517e;" parent="1" vertex="1">
          <mxGeometry x="472.5" y="1454" width="160" height="130" as="geometry" />
        </mxCell>
        <mxCell id="YMv8TizBlmgqIoL7gUsq-15" value="+ FilePath: string" style="text;strokeColor=none;fillColor=none;align=left;verticalAlign=top;spacingLeft=4;spacingRight=4;overflow=hidden;rotatable=0;points=[[0,0.5],[1,0.5]];portConstraint=eastwest;whiteSpace=wrap;html=1;" parent="gUjudwzjFV2ijySRPbhX-2" vertex="1">
          <mxGeometry y="26" width="160" height="26" as="geometry" />
        </mxCell>
        <mxCell id="gUjudwzjFV2ijySRPbhX-5" value="+ Wafer: WaferInfo" style="text;strokeColor=none;fillColor=none;align=left;verticalAlign=top;spacingLeft=4;spacingRight=4;overflow=hidden;rotatable=0;points=[[0,0.5],[1,0.5]];portConstraint=eastwest;whiteSpace=wrap;html=1;" parent="gUjudwzjFV2ijySRPbhX-2" vertex="1">
          <mxGeometry y="52" width="160" height="26" as="geometry" />
        </mxCell>
        <mxCell id="3aLNLfxiC9mMCZ3IaZ0c-22" value="+ Dies: List&amp;lt;DieInfo&amp;gt;" style="text;strokeColor=none;fillColor=none;align=left;verticalAlign=top;spacingLeft=4;spacingRight=4;overflow=hidden;rotatable=0;points=[[0,0.5],[1,0.5]];portConstraint=eastwest;whiteSpace=wrap;html=1;" parent="gUjudwzjFV2ijySRPbhX-2" vertex="1">
          <mxGeometry y="78" width="160" height="26" as="geometry" />
        </mxCell>
        <mxCell id="gUjudwzjFV2ijySRPbhX-3" value="+ Defects: List&amp;lt;DefectInfo&amp;gt;" style="text;strokeColor=none;fillColor=none;align=left;verticalAlign=top;spacingLeft=4;spacingRight=4;overflow=hidden;rotatable=0;points=[[0,0.5],[1,0.5]];portConstraint=eastwest;whiteSpace=wrap;html=1;" parent="gUjudwzjFV2ijySRPbhX-2" vertex="1">
          <mxGeometry y="104" width="160" height="26" as="geometry" />
        </mxCell>
        <mxCell id="YMv8TizBlmgqIoL7gUsq-1" style="edgeStyle=orthogonalEdgeStyle;rounded=0;orthogonalLoop=1;jettySize=auto;html=1;exitX=0.5;exitY=0;exitDx=0;exitDy=0;entryX=0;entryY=0.5;entryDx=0;entryDy=0;endArrow=diamondThin;endFill=0;startArrow=none;startFill=0;endSize=8;" parent="1" source="gUjudwzjFV2ijySRPbhX-6" target="gUjudwzjFV2ijySRPbhX-2" edge="1">
          <mxGeometry relative="1" as="geometry" />
        </mxCell>
        <mxCell id="gUjudwzjFV2ijySRPbhX-6" value="DefectInfo" style="swimlane;fontStyle=1;align=center;verticalAlign=top;childLayout=stackLayout;horizontal=1;startSize=26;horizontalStack=0;resizeParent=1;resizeParentMax=0;resizeLast=0;collapsible=1;marginBottom=0;whiteSpace=wrap;html=1;fillColor=#d0cee2;strokeColor=#56517e;" parent="1" vertex="1">
          <mxGeometry x="280" y="1580" width="160" height="390" as="geometry" />
        </mxCell>
        <mxCell id="gUjudwzjFV2ijySRPbhX-7" value="+ Id: int" style="text;strokeColor=none;fillColor=none;align=left;verticalAlign=top;spacingLeft=4;spacingRight=4;overflow=hidden;rotatable=0;points=[[0,0.5],[1,0.5]];portConstraint=eastwest;whiteSpace=wrap;html=1;" parent="gUjudwzjFV2ijySRPbhX-6" vertex="1">
          <mxGeometry y="26" width="160" height="26" as="geometry" />
        </mxCell>
        <mxCell id="3aLNLfxiC9mMCZ3IaZ0c-1" value="+ XRel: double" style="text;strokeColor=none;fillColor=none;align=left;verticalAlign=top;spacingLeft=4;spacingRight=4;overflow=hidden;rotatable=0;points=[[0,0.5],[1,0.5]];portConstraint=eastwest;whiteSpace=wrap;html=1;" parent="gUjudwzjFV2ijySRPbhX-6" vertex="1">
          <mxGeometry y="52" width="160" height="26" as="geometry" />
        </mxCell>
        <mxCell id="3aLNLfxiC9mMCZ3IaZ0c-9" value="+ YRel: double" style="text;strokeColor=none;fillColor=none;align=left;verticalAlign=top;spacingLeft=4;spacingRight=4;overflow=hidden;rotatable=0;points=[[0,0.5],[1,0.5]];portConstraint=eastwest;whiteSpace=wrap;html=1;" parent="gUjudwzjFV2ijySRPbhX-6" vertex="1">
          <mxGeometry y="78" width="160" height="26" as="geometry" />
        </mxCell>
        <mxCell id="3aLNLfxiC9mMCZ3IaZ0c-2" value="+ XIndex: int" style="text;strokeColor=none;fillColor=none;align=left;verticalAlign=top;spacingLeft=4;spacingRight=4;overflow=hidden;rotatable=0;points=[[0,0.5],[1,0.5]];portConstraint=eastwest;whiteSpace=wrap;html=1;" parent="gUjudwzjFV2ijySRPbhX-6" vertex="1">
          <mxGeometry y="104" width="160" height="26" as="geometry" />
        </mxCell>
        <mxCell id="3aLNLfxiC9mMCZ3IaZ0c-3" value="+ YIndex: int" style="text;strokeColor=none;fillColor=none;align=left;verticalAlign=top;spacingLeft=4;spacingRight=4;overflow=hidden;rotatable=0;points=[[0,0.5],[1,0.5]];portConstraint=eastwest;whiteSpace=wrap;html=1;" parent="gUjudwzjFV2ijySRPbhX-6" vertex="1">
          <mxGeometry y="130" width="160" height="26" as="geometry" />
        </mxCell>
        <mxCell id="3aLNLfxiC9mMCZ3IaZ0c-10" value="+ XSize: double" style="text;strokeColor=none;fillColor=none;align=left;verticalAlign=top;spacingLeft=4;spacingRight=4;overflow=hidden;rotatable=0;points=[[0,0.5],[1,0.5]];portConstraint=eastwest;whiteSpace=wrap;html=1;" parent="gUjudwzjFV2ijySRPbhX-6" vertex="1">
          <mxGeometry y="156" width="160" height="26" as="geometry" />
        </mxCell>
        <mxCell id="3aLNLfxiC9mMCZ3IaZ0c-11" value="+ YSize: double" style="text;strokeColor=none;fillColor=none;align=left;verticalAlign=top;spacingLeft=4;spacingRight=4;overflow=hidden;rotatable=0;points=[[0,0.5],[1,0.5]];portConstraint=eastwest;whiteSpace=wrap;html=1;" parent="gUjudwzjFV2ijySRPbhX-6" vertex="1">
          <mxGeometry y="182" width="160" height="26" as="geometry" />
        </mxCell>
        <mxCell id="3aLNLfxiC9mMCZ3IaZ0c-12" value="+ DefectArea: int" style="text;strokeColor=none;fillColor=none;align=left;verticalAlign=top;spacingLeft=4;spacingRight=4;overflow=hidden;rotatable=0;points=[[0,0.5],[1,0.5]];portConstraint=eastwest;whiteSpace=wrap;html=1;" parent="gUjudwzjFV2ijySRPbhX-6" vertex="1">
          <mxGeometry y="208" width="160" height="26" as="geometry" />
        </mxCell>
        <mxCell id="3aLNLfxiC9mMCZ3IaZ0c-13" value="+ DSize: int" style="text;strokeColor=none;fillColor=none;align=left;verticalAlign=top;spacingLeft=4;spacingRight=4;overflow=hidden;rotatable=0;points=[[0,0.5],[1,0.5]];portConstraint=eastwest;whiteSpace=wrap;html=1;" parent="gUjudwzjFV2ijySRPbhX-6" vertex="1">
          <mxGeometry y="234" width="160" height="26" as="geometry" />
        </mxCell>
        <mxCell id="3aLNLfxiC9mMCZ3IaZ0c-20" value="+ ImageCount: int" style="text;strokeColor=none;fillColor=none;align=left;verticalAlign=top;spacingLeft=4;spacingRight=4;overflow=hidden;rotatable=0;points=[[0,0.5],[1,0.5]];portConstraint=eastwest;whiteSpace=wrap;html=1;" parent="gUjudwzjFV2ijySRPbhX-6" vertex="1">
          <mxGeometry y="260" width="160" height="26" as="geometry" />
        </mxCell>
        <mxCell id="3aLNLfxiC9mMCZ3IaZ0c-21" value="+ ImageId: int" style="text;strokeColor=none;fillColor=none;align=left;verticalAlign=top;spacingLeft=4;spacingRight=4;overflow=hidden;rotatable=0;points=[[0,0.5],[1,0.5]];portConstraint=eastwest;whiteSpace=wrap;html=1;" parent="gUjudwzjFV2ijySRPbhX-6" vertex="1">
          <mxGeometry y="286" width="160" height="26" as="geometry" />
        </mxCell>
        <mxCell id="nmG_gIvbDKn6ohxfI6vR-1" value="+ TotalDefectsInDie" style="text;strokeColor=none;fillColor=none;align=left;verticalAlign=top;spacingLeft=4;spacingRight=4;overflow=hidden;rotatable=0;points=[[0,0.5],[1,0.5]];portConstraint=eastwest;whiteSpace=wrap;html=1;" parent="gUjudwzjFV2ijySRPbhX-6" vertex="1">
          <mxGeometry y="312" width="160" height="26" as="geometry" />
        </mxCell>
        <mxCell id="nmG_gIvbDKn6ohxfI6vR-3" value="+ DefectIdInDie" style="text;strokeColor=none;fillColor=none;align=left;verticalAlign=top;spacingLeft=4;spacingRight=4;overflow=hidden;rotatable=0;points=[[0,0.5],[1,0.5]];portConstraint=eastwest;whiteSpace=wrap;html=1;" parent="gUjudwzjFV2ijySRPbhX-6" vertex="1">
          <mxGeometry y="338" width="160" height="26" as="geometry" />
        </mxCell>
        <mxCell id="nmG_gIvbDKn6ohxfI6vR-2" value="+ ImageCount: int" style="text;strokeColor=none;fillColor=none;align=left;verticalAlign=top;spacingLeft=4;spacingRight=4;overflow=hidden;rotatable=0;points=[[0,0.5],[1,0.5]];portConstraint=eastwest;whiteSpace=wrap;html=1;" parent="gUjudwzjFV2ijySRPbhX-6" vertex="1">
          <mxGeometry y="364" width="160" height="26" as="geometry" />
        </mxCell>
        <mxCell id="gUjudwzjFV2ijySRPbhX-14" value="WaferInfo" style="swimlane;fontStyle=1;align=center;verticalAlign=top;childLayout=stackLayout;horizontal=1;startSize=26;horizontalStack=0;resizeParent=1;resizeParentMax=0;resizeLast=0;collapsible=1;marginBottom=0;whiteSpace=wrap;html=1;fillColor=#d0cee2;strokeColor=#56517e;" parent="1" vertex="1">
          <mxGeometry x="670" y="1626" width="210" height="208" as="geometry" />
        </mxCell>
        <mxCell id="gUjudwzjFV2ijySRPbhX-15" value="+ WaferID: string" style="text;strokeColor=none;fillColor=none;align=left;verticalAlign=top;spacingLeft=4;spacingRight=4;overflow=hidden;rotatable=0;points=[[0,0.5],[1,0.5]];portConstraint=eastwest;whiteSpace=wrap;html=1;" parent="gUjudwzjFV2ijySRPbhX-14" vertex="1">
          <mxGeometry y="26" width="210" height="26" as="geometry" />
        </mxCell>
        <mxCell id="3aLNLfxiC9mMCZ3IaZ0c-25" value="+ LotID: string" style="text;strokeColor=none;fillColor=none;align=left;verticalAlign=top;spacingLeft=4;spacingRight=4;overflow=hidden;rotatable=0;points=[[0,0.5],[1,0.5]];portConstraint=eastwest;whiteSpace=wrap;html=1;" parent="gUjudwzjFV2ijySRPbhX-14" vertex="1">
          <mxGeometry y="52" width="210" height="26" as="geometry" />
        </mxCell>
        <mxCell id="3aLNLfxiC9mMCZ3IaZ0c-26" value="+ Slot: int" style="text;strokeColor=none;fillColor=none;align=left;verticalAlign=top;spacingLeft=4;spacingRight=4;overflow=hidden;rotatable=0;points=[[0,0.5],[1,0.5]];portConstraint=eastwest;whiteSpace=wrap;html=1;" parent="gUjudwzjFV2ijySRPbhX-14" vertex="1">
          <mxGeometry y="78" width="210" height="26" as="geometry" />
        </mxCell>
        <mxCell id="3aLNLfxiC9mMCZ3IaZ0c-27" value="+ DiePitch: DieSize" style="text;strokeColor=none;fillColor=none;align=left;verticalAlign=top;spacingLeft=4;spacingRight=4;overflow=hidden;rotatable=0;points=[[0,0.5],[1,0.5]];portConstraint=eastwest;whiteSpace=wrap;html=1;" parent="gUjudwzjFV2ijySRPbhX-14" vertex="1">
          <mxGeometry y="104" width="210" height="26" as="geometry" />
        </mxCell>
        <mxCell id="3aLNLfxiC9mMCZ3IaZ0c-28" value="+ FileTimestamp: DateTime" style="text;strokeColor=none;fillColor=none;align=left;verticalAlign=top;spacingLeft=4;spacingRight=4;overflow=hidden;rotatable=0;points=[[0,0.5],[1,0.5]];portConstraint=eastwest;whiteSpace=wrap;html=1;" parent="gUjudwzjFV2ijySRPbhX-14" vertex="1">
          <mxGeometry y="130" width="210" height="26" as="geometry" />
        </mxCell>
        <mxCell id="nmG_gIvbDKn6ohxfI6vR-4" value="+ SampleCenterLocation: SampeCenter" style="text;strokeColor=none;fillColor=none;align=left;verticalAlign=top;spacingLeft=4;spacingRight=4;overflow=hidden;rotatable=0;points=[[0,0.5],[1,0.5]];portConstraint=eastwest;whiteSpace=wrap;html=1;" parent="gUjudwzjFV2ijySRPbhX-14" vertex="1">
          <mxGeometry y="156" width="210" height="26" as="geometry" />
        </mxCell>
        <mxCell id="3aLNLfxiC9mMCZ3IaZ0c-29" value="+ TiffFilename: string" style="text;strokeColor=none;fillColor=none;align=left;verticalAlign=top;spacingLeft=4;spacingRight=4;overflow=hidden;rotatable=0;points=[[0,0.5],[1,0.5]];portConstraint=eastwest;whiteSpace=wrap;html=1;" parent="gUjudwzjFV2ijySRPbhX-14" vertex="1">
          <mxGeometry y="182" width="210" height="26" as="geometry" />
        </mxCell>
        <mxCell id="gUjudwzjFV2ijySRPbhX-18" value="DieInfo" style="swimlane;fontStyle=1;align=center;verticalAlign=top;childLayout=stackLayout;horizontal=1;startSize=26;horizontalStack=0;resizeParent=1;resizeParentMax=0;resizeLast=0;collapsible=1;marginBottom=0;whiteSpace=wrap;html=1;fillColor=#d0cee2;strokeColor=#56517e;" parent="1" vertex="1">
          <mxGeometry x="470" y="1626" width="160" height="130" as="geometry" />
        </mxCell>
        <mxCell id="gUjudwzjFV2ijySRPbhX-19" value="+ XIndex: int" style="text;strokeColor=none;fillColor=none;align=left;verticalAlign=top;spacingLeft=4;spacingRight=4;overflow=hidden;rotatable=0;points=[[0,0.5],[1,0.5]];portConstraint=eastwest;whiteSpace=wrap;html=1;" parent="gUjudwzjFV2ijySRPbhX-18" vertex="1">
          <mxGeometry y="26" width="160" height="26" as="geometry" />
        </mxCell>
        <mxCell id="gUjudwzjFV2ijySRPbhX-21" value="+ YIndex: int" style="text;strokeColor=none;fillColor=none;align=left;verticalAlign=top;spacingLeft=4;spacingRight=4;overflow=hidden;rotatable=0;points=[[0,0.5],[1,0.5]];portConstraint=eastwest;whiteSpace=wrap;html=1;" parent="gUjudwzjFV2ijySRPbhX-18" vertex="1">
          <mxGeometry y="52" width="160" height="26" as="geometry" />
        </mxCell>
        <mxCell id="3aLNLfxiC9mMCZ3IaZ0c-23" value="+ IsDefective: bool" style="text;strokeColor=none;fillColor=none;align=left;verticalAlign=top;spacingLeft=4;spacingRight=4;overflow=hidden;rotatable=0;points=[[0,0.5],[1,0.5]];portConstraint=eastwest;whiteSpace=wrap;html=1;" parent="gUjudwzjFV2ijySRPbhX-18" vertex="1">
          <mxGeometry y="78" width="160" height="26" as="geometry" />
        </mxCell>
        <mxCell id="3aLNLfxiC9mMCZ3IaZ0c-24" value="+ Defects: List&amp;lt;DefectInfo&amp;gt;" style="text;strokeColor=none;fillColor=none;align=left;verticalAlign=top;spacingLeft=4;spacingRight=4;overflow=hidden;rotatable=0;points=[[0,0.5],[1,0.5]];portConstraint=eastwest;whiteSpace=wrap;html=1;" parent="gUjudwzjFV2ijySRPbhX-18" vertex="1">
          <mxGeometry y="104" width="160" height="26" as="geometry" />
        </mxCell>
        <mxCell id="i29WpQQr9Gu0z_t5lh4E-14" value="KlarfParsingService" style="swimlane;fontStyle=1;align=center;verticalAlign=top;childLayout=stackLayout;horizontal=1;startSize=26;horizontalStack=0;resizeParent=1;resizeParentMax=0;resizeLast=0;collapsible=1;marginBottom=0;whiteSpace=wrap;html=1;fillColor=#fad9d5;strokeColor=#ae4132;" parent="1" vertex="1">
          <mxGeometry x="1165" y="1680" width="380" height="156" as="geometry" />
        </mxCell>
        <mxCell id="i29WpQQr9Gu0z_t5lh4E-15" value="+ Parse(string): KlarfData" style="text;strokeColor=none;fillColor=none;align=left;verticalAlign=top;spacingLeft=4;spacingRight=4;overflow=hidden;rotatable=0;points=[[0,0.5],[1,0.5]];portConstraint=eastwest;whiteSpace=wrap;html=1;" parent="i29WpQQr9Gu0z_t5lh4E-14" vertex="1">
          <mxGeometry y="26" width="380" height="26" as="geometry" />
        </mxCell>
        <mxCell id="i29WpQQr9Gu0z_t5lh4E-16" value="- GetValue&amp;lt;T&amp;gt;(string[], int, List&amp;lt;string&amp;gt;, List&amp;lt;DefectInfo&amp;gt;): T" style="text;strokeColor=none;fillColor=none;align=left;verticalAlign=top;spacingLeft=4;spacingRight=4;overflow=hidden;rotatable=0;points=[[0,0.5],[1,0.5]];portConstraint=eastwest;whiteSpace=wrap;html=1;" parent="i29WpQQr9Gu0z_t5lh4E-14" vertex="1">
          <mxGeometry y="52" width="380" height="26" as="geometry" />
        </mxCell>
        <mxCell id="i29WpQQr9Gu0z_t5lh4E-17" value="- ParseSampleTestPlan(string[], int,&amp;nbsp; int , List&amp;lt;DieInfo&amp;gt;): int" style="text;strokeColor=none;fillColor=none;align=left;verticalAlign=top;spacingLeft=4;spacingRight=4;overflow=hidden;rotatable=0;points=[[0,0.5],[1,0.5]];portConstraint=eastwest;whiteSpace=wrap;html=1;" parent="i29WpQQr9Gu0z_t5lh4E-14" vertex="1">
          <mxGeometry y="78" width="380" height="26" as="geometry" />
        </mxCell>
        <mxCell id="i29WpQQr9Gu0z_t5lh4E-18" value="-&amp;nbsp;ParseDefectList(string[], int, List&amp;lt;string&amp;gt;, List&amp;lt;DefectInfo&amp;gt;): int" style="text;strokeColor=none;fillColor=none;align=left;verticalAlign=top;spacingLeft=4;spacingRight=4;overflow=hidden;rotatable=0;points=[[0,0.5],[1,0.5]];portConstraint=eastwest;whiteSpace=wrap;html=1;" parent="i29WpQQr9Gu0z_t5lh4E-14" vertex="1">
          <mxGeometry y="104" width="380" height="26" as="geometry" />
        </mxCell>
        <mxCell id="i29WpQQr9Gu0z_t5lh4E-19" value="- LinkDefectsToDies(KlarfData): void" style="text;strokeColor=none;fillColor=none;align=left;verticalAlign=top;spacingLeft=4;spacingRight=4;overflow=hidden;rotatable=0;points=[[0,0.5],[1,0.5]];portConstraint=eastwest;whiteSpace=wrap;html=1;" parent="i29WpQQr9Gu0z_t5lh4E-14" vertex="1">
          <mxGeometry y="130" width="380" height="26" as="geometry" />
        </mxCell>
        <mxCell id="YMv8TizBlmgqIoL7gUsq-69" style="edgeStyle=orthogonalEdgeStyle;rounded=0;orthogonalLoop=1;jettySize=auto;html=1;exitX=0.5;exitY=0;exitDx=0;exitDy=0;entryX=0.5;entryY=1;entryDx=0;entryDy=0;" parent="1" source="i29WpQQr9Gu0z_t5lh4E-21" target="YMv8TizBlmgqIoL7gUsq-57" edge="1">
          <mxGeometry relative="1" as="geometry" />
        </mxCell>
        <mxCell id="i29WpQQr9Gu0z_t5lh4E-21" value="WaferMapViewModel" style="swimlane;fontStyle=1;align=center;verticalAlign=top;childLayout=stackLayout;horizontal=1;startSize=26;horizontalStack=0;resizeParent=1;resizeParentMax=0;resizeLast=0;collapsible=1;marginBottom=0;whiteSpace=wrap;html=1;fillColor=#647687;strokeColor=#314354;fontColor=#ffffff;" parent="1" vertex="1">
          <mxGeometry x="1845" y="1390" width="380" height="130" as="geometry" />
        </mxCell>
        <mxCell id="i29WpQQr9Gu0z_t5lh4E-22" value="+ WaferInformation: WaferInfo" style="text;strokeColor=none;fillColor=none;align=left;verticalAlign=top;spacingLeft=4;spacingRight=4;overflow=hidden;rotatable=0;points=[[0,0.5],[1,0.5]];portConstraint=eastwest;whiteSpace=wrap;html=1;" parent="i29WpQQr9Gu0z_t5lh4E-21" vertex="1">
          <mxGeometry y="26" width="380" height="26" as="geometry" />
        </mxCell>
        <mxCell id="i29WpQQr9Gu0z_t5lh4E-23" value="+ Dies: ObservableCollection&amp;lt;DieViewModel&amp;gt;&amp;nbsp;" style="text;strokeColor=none;fillColor=none;align=left;verticalAlign=top;spacingLeft=4;spacingRight=4;overflow=hidden;rotatable=0;points=[[0,0.5],[1,0.5]];portConstraint=eastwest;whiteSpace=wrap;html=1;" parent="i29WpQQr9Gu0z_t5lh4E-21" vertex="1">
          <mxGeometry y="52" width="380" height="26" as="geometry" />
        </mxCell>
        <mxCell id="YMv8TizBlmgqIoL7gUsq-26" value="+ WaferMapWidth: double" style="text;strokeColor=none;fillColor=none;align=left;verticalAlign=top;spacingLeft=4;spacingRight=4;overflow=hidden;rotatable=0;points=[[0,0.5],[1,0.5]];portConstraint=eastwest;whiteSpace=wrap;html=1;" parent="i29WpQQr9Gu0z_t5lh4E-21" vertex="1">
          <mxGeometry y="78" width="380" height="26" as="geometry" />
        </mxCell>
        <mxCell id="YMv8TizBlmgqIoL7gUsq-27" value="+ WaferMapHeight: double" style="text;strokeColor=none;fillColor=none;align=left;verticalAlign=top;spacingLeft=4;spacingRight=4;overflow=hidden;rotatable=0;points=[[0,0.5],[1,0.5]];portConstraint=eastwest;whiteSpace=wrap;html=1;" parent="i29WpQQr9Gu0z_t5lh4E-21" vertex="1">
          <mxGeometry y="104" width="380" height="26" as="geometry" />
        </mxCell>
        <mxCell id="i29WpQQr9Gu0z_t5lh4E-37" value="DefectImageViewModel" style="swimlane;fontStyle=1;align=center;verticalAlign=top;childLayout=stackLayout;horizontal=1;startSize=26;horizontalStack=0;resizeParent=1;resizeParentMax=0;resizeLast=0;collapsible=1;marginBottom=0;whiteSpace=wrap;html=1;fillColor=#647687;strokeColor=#314354;fontColor=#ffffff;" parent="1" vertex="1">
          <mxGeometry x="1855" y="1602" width="380" height="138" as="geometry" />
        </mxCell>
        <mxCell id="i29WpQQr9Gu0z_t5lh4E-38" value="- defectImage: BitmapSource" style="text;strokeColor=none;fillColor=none;align=left;verticalAlign=top;spacingLeft=4;spacingRight=4;overflow=hidden;rotatable=0;points=[[0,0.5],[1,0.5]];portConstraint=eastwest;whiteSpace=wrap;html=1;" parent="i29WpQQr9Gu0z_t5lh4E-37" vertex="1">
          <mxGeometry y="26" width="380" height="26" as="geometry" />
        </mxCell>
        <mxCell id="i29WpQQr9Gu0z_t5lh4E-39" value="- imageLoadingError: string" style="text;strokeColor=none;fillColor=none;align=left;verticalAlign=top;spacingLeft=4;spacingRight=4;overflow=hidden;rotatable=0;points=[[0,0.5],[1,0.5]];portConstraint=eastwest;whiteSpace=wrap;html=1;" parent="i29WpQQr9Gu0z_t5lh4E-37" vertex="1">
          <mxGeometry y="52" width="380" height="26" as="geometry" />
        </mxCell>
        <mxCell id="i29WpQQr9Gu0z_t5lh4E-40" value="+ ImageLoadingError: string" style="text;strokeColor=none;fillColor=none;align=left;verticalAlign=top;spacingLeft=4;spacingRight=4;overflow=hidden;rotatable=0;points=[[0,0.5],[1,0.5]];portConstraint=eastwest;whiteSpace=wrap;html=1;" parent="i29WpQQr9Gu0z_t5lh4E-37" vertex="1">
          <mxGeometry y="78" width="380" height="26" as="geometry" />
        </mxCell>
        <mxCell id="i29WpQQr9Gu0z_t5lh4E-55" value="" style="line;strokeWidth=1;fillColor=none;align=left;verticalAlign=middle;spacingTop=-1;spacingLeft=3;spacingRight=3;rotatable=0;labelPosition=right;points=[];portConstraint=eastwest;strokeColor=inherit;" parent="i29WpQQr9Gu0z_t5lh4E-37" vertex="1">
          <mxGeometry y="104" width="380" height="8" as="geometry" />
        </mxCell>
        <mxCell id="i29WpQQr9Gu0z_t5lh4E-41" value="+ UpdateImage(string, int): void" style="text;strokeColor=none;fillColor=none;align=left;verticalAlign=top;spacingLeft=4;spacingRight=4;overflow=hidden;rotatable=0;points=[[0,0.5],[1,0.5]];portConstraint=eastwest;whiteSpace=wrap;html=1;" parent="i29WpQQr9Gu0z_t5lh4E-37" vertex="1">
          <mxGeometry y="112" width="380" height="26" as="geometry" />
        </mxCell>
        <mxCell id="YMv8TizBlmgqIoL7gUsq-71" style="edgeStyle=orthogonalEdgeStyle;rounded=0;orthogonalLoop=1;jettySize=auto;html=1;exitX=0.003;exitY=0.082;exitDx=0;exitDy=0;entryX=0.5;entryY=1;entryDx=0;entryDy=0;exitPerimeter=0;" parent="1" source="i29WpQQr9Gu0z_t5lh4E-42" target="YMv8TizBlmgqIoL7gUsq-47" edge="1">
          <mxGeometry relative="1" as="geometry">
            <Array as="points">
              <mxPoint x="1725" y="1802" />
            </Array>
          </mxGeometry>
        </mxCell>
        <mxCell id="i29WpQQr9Gu0z_t5lh4E-42" value="DefectListViewModel" style="swimlane;fontStyle=1;align=center;verticalAlign=top;childLayout=stackLayout;horizontal=1;startSize=26;horizontalStack=0;resizeParent=1;resizeParentMax=0;resizeLast=0;collapsible=1;marginBottom=0;whiteSpace=wrap;html=1;fillColor=#647687;strokeColor=#314354;fontColor=#ffffff;" parent="1" vertex="1">
          <mxGeometry x="1855" y="1760" width="380" height="268" as="geometry" />
        </mxCell>
        <mxCell id="i29WpQQr9Gu0z_t5lh4E-57" value="+ Wafer: WaferInfo" style="text;strokeColor=none;fillColor=none;align=left;verticalAlign=top;spacingLeft=4;spacingRight=4;overflow=hidden;rotatable=0;points=[[0,0.5],[1,0.5]];portConstraint=eastwest;whiteSpace=wrap;html=1;" parent="i29WpQQr9Gu0z_t5lh4E-42" vertex="1">
          <mxGeometry y="26" width="380" height="26" as="geometry" />
        </mxCell>
        <mxCell id="i29WpQQr9Gu0z_t5lh4E-58" value="+ CurrentDefectIndex: int" style="text;strokeColor=none;fillColor=none;align=left;verticalAlign=top;spacingLeft=4;spacingRight=4;overflow=hidden;rotatable=0;points=[[0,0.5],[1,0.5]];portConstraint=eastwest;whiteSpace=wrap;html=1;" parent="i29WpQQr9Gu0z_t5lh4E-42" vertex="1">
          <mxGeometry y="52" width="380" height="26" as="geometry" />
        </mxCell>
        <mxCell id="i29WpQQr9Gu0z_t5lh4E-59" value="+ TotalDefectCount: int" style="text;strokeColor=none;fillColor=none;align=left;verticalAlign=top;spacingLeft=4;spacingRight=4;overflow=hidden;rotatable=0;points=[[0,0.5],[1,0.5]];portConstraint=eastwest;whiteSpace=wrap;html=1;" parent="i29WpQQr9Gu0z_t5lh4E-42" vertex="1">
          <mxGeometry y="78" width="380" height="26" as="geometry" />
        </mxCell>
        <mxCell id="i29WpQQr9Gu0z_t5lh4E-56" value="" style="line;strokeWidth=1;fillColor=none;align=left;verticalAlign=middle;spacingTop=-1;spacingLeft=3;spacingRight=3;rotatable=0;labelPosition=right;points=[];portConstraint=eastwest;strokeColor=inherit;" parent="i29WpQQr9Gu0z_t5lh4E-42" vertex="1">
          <mxGeometry y="104" width="380" height="8" as="geometry" />
        </mxCell>
        <mxCell id="i29WpQQr9Gu0z_t5lh4E-43" value="- CanExecuteNextDefect(): void" style="text;strokeColor=none;fillColor=none;align=left;verticalAlign=top;spacingLeft=4;spacingRight=4;overflow=hidden;rotatable=0;points=[[0,0.5],[1,0.5]];portConstraint=eastwest;whiteSpace=wrap;html=1;" parent="i29WpQQr9Gu0z_t5lh4E-42" vertex="1">
          <mxGeometry y="112" width="380" height="26" as="geometry" />
        </mxCell>
        <mxCell id="i29WpQQr9Gu0z_t5lh4E-47" value="- CanExecutePreviousDefect(): void" style="text;strokeColor=none;fillColor=none;align=left;verticalAlign=top;spacingLeft=4;spacingRight=4;overflow=hidden;rotatable=0;points=[[0,0.5],[1,0.5]];portConstraint=eastwest;whiteSpace=wrap;html=1;" parent="i29WpQQr9Gu0z_t5lh4E-42" vertex="1">
          <mxGeometry y="138" width="380" height="26" as="geometry" />
        </mxCell>
        <mxCell id="i29WpQQr9Gu0z_t5lh4E-48" value="- ExecutePreviousDefect(): void" style="text;strokeColor=none;fillColor=none;align=left;verticalAlign=top;spacingLeft=4;spacingRight=4;overflow=hidden;rotatable=0;points=[[0,0.5],[1,0.5]];portConstraint=eastwest;whiteSpace=wrap;html=1;" parent="i29WpQQr9Gu0z_t5lh4E-42" vertex="1">
          <mxGeometry y="164" width="380" height="26" as="geometry" />
        </mxCell>
        <mxCell id="i29WpQQr9Gu0z_t5lh4E-49" value="- ExecuteNextDefect(): void" style="text;strokeColor=none;fillColor=none;align=left;verticalAlign=top;spacingLeft=4;spacingRight=4;overflow=hidden;rotatable=0;points=[[0,0.5],[1,0.5]];portConstraint=eastwest;whiteSpace=wrap;html=1;" parent="i29WpQQr9Gu0z_t5lh4E-42" vertex="1">
          <mxGeometry y="190" width="380" height="26" as="geometry" />
        </mxCell>
        <mxCell id="i29WpQQr9Gu0z_t5lh4E-50" value="- UpdateDefectIndices(): void" style="text;strokeColor=none;fillColor=none;align=left;verticalAlign=top;spacingLeft=4;spacingRight=4;overflow=hidden;rotatable=0;points=[[0,0.5],[1,0.5]];portConstraint=eastwest;whiteSpace=wrap;html=1;" parent="i29WpQQr9Gu0z_t5lh4E-42" vertex="1">
          <mxGeometry y="216" width="380" height="26" as="geometry" />
        </mxCell>
        <mxCell id="i29WpQQr9Gu0z_t5lh4E-46" value="+ UpdateDefects(KlarfData): void" style="text;strokeColor=none;fillColor=none;align=left;verticalAlign=top;spacingLeft=4;spacingRight=4;overflow=hidden;rotatable=0;points=[[0,0.5],[1,0.5]];portConstraint=eastwest;whiteSpace=wrap;html=1;" parent="i29WpQQr9Gu0z_t5lh4E-42" vertex="1">
          <mxGeometry y="242" width="380" height="26" as="geometry" />
        </mxCell>
        <mxCell id="nmG_gIvbDKn6ohxfI6vR-5" style="edgeStyle=orthogonalEdgeStyle;rounded=0;orthogonalLoop=1;jettySize=auto;html=1;exitX=0;exitY=0.5;exitDx=0;exitDy=0;entryX=1;entryY=0.25;entryDx=0;entryDy=0;endSize=8;endArrow=open;endFill=0;startArrow=open;startFill=0;dashed=1;" parent="1" source="i29WpQQr9Gu0z_t5lh4E-60" target="YMv8TizBlmgqIoL7gUsq-28" edge="1">
          <mxGeometry relative="1" as="geometry">
            <Array as="points">
              <mxPoint x="1670" y="1575" />
              <mxPoint x="1670" y="1880" />
            </Array>
          </mxGeometry>
        </mxCell>
        <mxCell id="i29WpQQr9Gu0z_t5lh4E-60" value="ShowDieViewModel" style="swimlane;fontStyle=1;align=center;verticalAlign=top;childLayout=stackLayout;horizontal=1;startSize=26;horizontalStack=0;resizeParent=1;resizeParentMax=0;resizeLast=0;collapsible=1;marginBottom=0;whiteSpace=wrap;html=1;fillColor=#647687;strokeColor=#314354;fontColor=#ffffff;" parent="1" vertex="1" collapsed="1">
          <mxGeometry x="1962.5" y="1560" width="145" height="30" as="geometry">
            <mxRectangle x="1930" y="470" width="380" height="234" as="alternateBounds" />
          </mxGeometry>
        </mxCell>
        <mxCell id="i29WpQQr9Gu0z_t5lh4E-61" value="+ X: double" style="text;strokeColor=none;fillColor=none;align=left;verticalAlign=top;spacingLeft=4;spacingRight=4;overflow=hidden;rotatable=0;points=[[0,0.5],[1,0.5]];portConstraint=eastwest;whiteSpace=wrap;html=1;" parent="i29WpQQr9Gu0z_t5lh4E-60" vertex="1">
          <mxGeometry y="26" width="380" height="26" as="geometry" />
        </mxCell>
        <mxCell id="i29WpQQr9Gu0z_t5lh4E-62" value="+ Y: double" style="text;strokeColor=none;fillColor=none;align=left;verticalAlign=top;spacingLeft=4;spacingRight=4;overflow=hidden;rotatable=0;points=[[0,0.5],[1,0.5]];portConstraint=eastwest;whiteSpace=wrap;html=1;" parent="i29WpQQr9Gu0z_t5lh4E-60" vertex="1">
          <mxGeometry y="52" width="380" height="26" as="geometry" />
        </mxCell>
        <mxCell id="i29WpQQr9Gu0z_t5lh4E-63" value="+ Width: double" style="text;strokeColor=none;fillColor=none;align=left;verticalAlign=top;spacingLeft=4;spacingRight=4;overflow=hidden;rotatable=0;points=[[0,0.5],[1,0.5]];portConstraint=eastwest;whiteSpace=wrap;html=1;" parent="i29WpQQr9Gu0z_t5lh4E-60" vertex="1">
          <mxGeometry y="78" width="380" height="26" as="geometry" />
        </mxCell>
        <mxCell id="i29WpQQr9Gu0z_t5lh4E-71" value="+ Height: double" style="text;strokeColor=none;fillColor=none;align=left;verticalAlign=top;spacingLeft=4;spacingRight=4;overflow=hidden;rotatable=0;points=[[0,0.5],[1,0.5]];portConstraint=eastwest;whiteSpace=wrap;html=1;" parent="i29WpQQr9Gu0z_t5lh4E-60" vertex="1">
          <mxGeometry y="104" width="380" height="26" as="geometry" />
        </mxCell>
        <mxCell id="i29WpQQr9Gu0z_t5lh4E-67" value="+ XIndex: int" style="text;strokeColor=none;fillColor=none;align=left;verticalAlign=top;spacingLeft=4;spacingRight=4;overflow=hidden;rotatable=0;points=[[0,0.5],[1,0.5]];portConstraint=eastwest;whiteSpace=wrap;html=1;" parent="i29WpQQr9Gu0z_t5lh4E-60" vertex="1">
          <mxGeometry y="130" width="380" height="26" as="geometry" />
        </mxCell>
        <mxCell id="i29WpQQr9Gu0z_t5lh4E-73" value="+ YIndex: int" style="text;strokeColor=none;fillColor=none;align=left;verticalAlign=top;spacingLeft=4;spacingRight=4;overflow=hidden;rotatable=0;points=[[0,0.5],[1,0.5]];portConstraint=eastwest;whiteSpace=wrap;html=1;" parent="i29WpQQr9Gu0z_t5lh4E-60" vertex="1">
          <mxGeometry y="156" width="380" height="26" as="geometry" />
        </mxCell>
        <mxCell id="i29WpQQr9Gu0z_t5lh4E-65" value="+ IsDefective: bool" style="text;strokeColor=none;fillColor=none;align=left;verticalAlign=top;spacingLeft=4;spacingRight=4;overflow=hidden;rotatable=0;points=[[0,0.5],[1,0.5]];portConstraint=eastwest;whiteSpace=wrap;html=1;" parent="i29WpQQr9Gu0z_t5lh4E-60" vertex="1">
          <mxGeometry y="182" width="380" height="26" as="geometry" />
        </mxCell>
        <mxCell id="i29WpQQr9Gu0z_t5lh4E-74" value="+ Is Selected: bool" style="text;strokeColor=none;fillColor=none;align=left;verticalAlign=top;spacingLeft=4;spacingRight=4;overflow=hidden;rotatable=0;points=[[0,0.5],[1,0.5]];portConstraint=eastwest;whiteSpace=wrap;html=1;" parent="i29WpQQr9Gu0z_t5lh4E-60" vertex="1">
          <mxGeometry y="208" width="380" height="26" as="geometry" />
        </mxCell>
        <mxCell id="i29WpQQr9Gu0z_t5lh4E-75" value="FileListViewModel" style="swimlane;fontStyle=1;align=center;verticalAlign=top;childLayout=stackLayout;horizontal=1;startSize=26;horizontalStack=0;resizeParent=1;resizeParentMax=0;resizeLast=0;collapsible=1;marginBottom=0;whiteSpace=wrap;html=1;fillColor=#647687;strokeColor=#314354;fontColor=#ffffff;" parent="1" vertex="1">
          <mxGeometry x="1855" y="2220" width="380" height="164" as="geometry" />
        </mxCell>
        <mxCell id="i29WpQQr9Gu0z_t5lh4E-76" value="+ SelectedItem: FileSystemObjectViewModel:" style="text;strokeColor=none;fillColor=none;align=left;verticalAlign=top;spacingLeft=4;spacingRight=4;overflow=hidden;rotatable=0;points=[[0,0.5],[1,0.5]];portConstraint=eastwest;whiteSpace=wrap;html=1;" parent="i29WpQQr9Gu0z_t5lh4E-75" vertex="1">
          <mxGeometry y="26" width="380" height="26" as="geometry" />
        </mxCell>
        <mxCell id="i29WpQQr9Gu0z_t5lh4E-84" value="+ Fil&lt;span style=&quot;background-color: transparent; color: light-dark(rgb(0, 0, 0), rgb(255, 255, 255));&quot;&gt;eSelected: Action&amp;lt;string&amp;gt;&lt;/span&gt;" style="text;strokeColor=none;fillColor=none;align=left;verticalAlign=top;spacingLeft=4;spacingRight=4;overflow=hidden;rotatable=0;points=[[0,0.5],[1,0.5]];portConstraint=eastwest;whiteSpace=wrap;html=1;" parent="i29WpQQr9Gu0z_t5lh4E-75" vertex="1">
          <mxGeometry y="52" width="380" height="26" as="geometry" />
        </mxCell>
        <mxCell id="i29WpQQr9Gu0z_t5lh4E-77" value="+&amp;nbsp;Items:&amp;nbsp;ObservableCollection&amp;lt;FileSystemObjectViewModel&amp;gt;" style="text;strokeColor=none;fillColor=none;align=left;verticalAlign=top;spacingLeft=4;spacingRight=4;overflow=hidden;rotatable=0;points=[[0,0.5],[1,0.5]];portConstraint=eastwest;whiteSpace=wrap;html=1;" parent="i29WpQQr9Gu0z_t5lh4E-75" vertex="1">
          <mxGeometry y="78" width="380" height="26" as="geometry" />
        </mxCell>
        <mxCell id="i29WpQQr9Gu0z_t5lh4E-85" value="" style="line;strokeWidth=1;fillColor=none;align=left;verticalAlign=middle;spacingTop=-1;spacingLeft=3;spacingRight=3;rotatable=0;labelPosition=right;points=[];portConstraint=eastwest;strokeColor=inherit;" parent="i29WpQQr9Gu0z_t5lh4E-75" vertex="1">
          <mxGeometry y="104" width="380" height="8" as="geometry" />
        </mxCell>
        <mxCell id="i29WpQQr9Gu0z_t5lh4E-78" value="- ExecuteOpenFolder(): void" style="text;strokeColor=none;fillColor=none;align=left;verticalAlign=top;spacingLeft=4;spacingRight=4;overflow=hidden;rotatable=0;points=[[0,0.5],[1,0.5]];portConstraint=eastwest;whiteSpace=wrap;html=1;" parent="i29WpQQr9Gu0z_t5lh4E-75" vertex="1">
          <mxGeometry y="112" width="380" height="26" as="geometry" />
        </mxCell>
        <mxCell id="i29WpQQr9Gu0z_t5lh4E-86" value="- LoadSubDirectoriesAndFiles(FileSystemObjectViewModel): void" style="text;strokeColor=none;fillColor=none;align=left;verticalAlign=top;spacingLeft=4;spacingRight=4;overflow=hidden;rotatable=0;points=[[0,0.5],[1,0.5]];portConstraint=eastwest;whiteSpace=wrap;html=1;" parent="i29WpQQr9Gu0z_t5lh4E-75" vertex="1">
          <mxGeometry y="138" width="380" height="26" as="geometry" />
        </mxCell>
        <mxCell id="i29WpQQr9Gu0z_t5lh4E-88" value="FileSystemObjectViewModel" style="swimlane;fontStyle=1;align=center;verticalAlign=top;childLayout=stackLayout;horizontal=1;startSize=26;horizontalStack=0;resizeParent=1;resizeParentMax=0;resizeLast=0;collapsible=1;marginBottom=0;whiteSpace=wrap;html=1;fillColor=#647687;strokeColor=#314354;fontColor=#ffffff;" parent="1" vertex="1">
          <mxGeometry x="1855" y="2050" width="380" height="156" as="geometry" />
        </mxCell>
        <mxCell id="i29WpQQr9Gu0z_t5lh4E-89" value="+ Name: string" style="text;strokeColor=none;fillColor=none;align=left;verticalAlign=top;spacingLeft=4;spacingRight=4;overflow=hidden;rotatable=0;points=[[0,0.5],[1,0.5]];portConstraint=eastwest;whiteSpace=wrap;html=1;" parent="i29WpQQr9Gu0z_t5lh4E-88" vertex="1">
          <mxGeometry y="26" width="380" height="26" as="geometry" />
        </mxCell>
        <mxCell id="i29WpQQr9Gu0z_t5lh4E-90" value="+ FullPath: string" style="text;strokeColor=none;fillColor=none;align=left;verticalAlign=top;spacingLeft=4;spacingRight=4;overflow=hidden;rotatable=0;points=[[0,0.5],[1,0.5]];portConstraint=eastwest;whiteSpace=wrap;html=1;" parent="i29WpQQr9Gu0z_t5lh4E-88" vertex="1">
          <mxGeometry y="52" width="380" height="26" as="geometry" />
        </mxCell>
        <mxCell id="i29WpQQr9Gu0z_t5lh4E-91" value="&lt;div&gt;+ Children:&amp;nbsp;&lt;span style=&quot;background-color: transparent; color: light-dark(rgb(0, 0, 0), rgb(255, 255, 255));&quot;&gt;ObservableCollection&amp;lt;FileSystemObjectViewModel&amp;gt;&lt;/span&gt;&lt;/div&gt;" style="text;strokeColor=none;fillColor=none;align=left;verticalAlign=top;spacingLeft=4;spacingRight=4;overflow=hidden;rotatable=0;points=[[0,0.5],[1,0.5]];portConstraint=eastwest;whiteSpace=wrap;html=1;" parent="i29WpQQr9Gu0z_t5lh4E-88" vertex="1">
          <mxGeometry y="78" width="380" height="26" as="geometry" />
        </mxCell>
        <mxCell id="i29WpQQr9Gu0z_t5lh4E-95" value="&lt;div&gt;+ IsDirectory: bool&lt;/div&gt;" style="text;strokeColor=none;fillColor=none;align=left;verticalAlign=top;spacingLeft=4;spacingRight=4;overflow=hidden;rotatable=0;points=[[0,0.5],[1,0.5]];portConstraint=eastwest;whiteSpace=wrap;html=1;" parent="i29WpQQr9Gu0z_t5lh4E-88" vertex="1">
          <mxGeometry y="104" width="380" height="26" as="geometry" />
        </mxCell>
        <mxCell id="nmG_gIvbDKn6ohxfI6vR-6" value="&lt;div&gt;+ LastModified: DateTime&lt;/div&gt;" style="text;strokeColor=none;fillColor=none;align=left;verticalAlign=top;spacingLeft=4;spacingRight=4;overflow=hidden;rotatable=0;points=[[0,0.5],[1,0.5]];portConstraint=eastwest;whiteSpace=wrap;html=1;" parent="i29WpQQr9Gu0z_t5lh4E-88" vertex="1">
          <mxGeometry y="130" width="380" height="26" as="geometry" />
        </mxCell>
        <mxCell id="i29WpQQr9Gu0z_t5lh4E-96" value="MainViewModel" style="swimlane;fontStyle=1;align=center;verticalAlign=top;childLayout=stackLayout;horizontal=1;startSize=26;horizontalStack=0;resizeParent=1;resizeParentMax=0;resizeLast=0;collapsible=1;marginBottom=0;whiteSpace=wrap;html=1;fillColor=#647687;strokeColor=#314354;fontColor=#ffffff;" parent="1" vertex="1">
          <mxGeometry x="2445" y="1730" width="380" height="190" as="geometry" />
        </mxCell>
        <mxCell id="i29WpQQr9Gu0z_t5lh4E-105" value="+ DefectImageVM: DefectImageViewModel" style="text;strokeColor=none;fillColor=none;align=left;verticalAlign=top;spacingLeft=4;spacingRight=4;overflow=hidden;rotatable=0;points=[[0,0.5],[1,0.5]];portConstraint=eastwest;whiteSpace=wrap;html=1;" parent="i29WpQQr9Gu0z_t5lh4E-96" vertex="1">
          <mxGeometry y="26" width="380" height="26" as="geometry" />
        </mxCell>
        <mxCell id="i29WpQQr9Gu0z_t5lh4E-107" value="+ DefectListVM: DefectListViewModel" style="text;strokeColor=none;fillColor=none;align=left;verticalAlign=top;spacingLeft=4;spacingRight=4;overflow=hidden;rotatable=0;points=[[0,0.5],[1,0.5]];portConstraint=eastwest;whiteSpace=wrap;html=1;" parent="i29WpQQr9Gu0z_t5lh4E-96" vertex="1">
          <mxGeometry y="52" width="380" height="26" as="geometry" />
        </mxCell>
        <mxCell id="i29WpQQr9Gu0z_t5lh4E-106" value="+ FileViewerVM: FileListViewModel" style="text;strokeColor=none;fillColor=none;align=left;verticalAlign=top;spacingLeft=4;spacingRight=4;overflow=hidden;rotatable=0;points=[[0,0.5],[1,0.5]];portConstraint=eastwest;whiteSpace=wrap;html=1;" parent="i29WpQQr9Gu0z_t5lh4E-96" vertex="1">
          <mxGeometry y="78" width="380" height="26" as="geometry" />
        </mxCell>
        <mxCell id="i29WpQQr9Gu0z_t5lh4E-97" value="+ WaferMapVM: WaferMapViewModel" style="text;strokeColor=none;fillColor=none;align=left;verticalAlign=top;spacingLeft=4;spacingRight=4;overflow=hidden;rotatable=0;points=[[0,0.5],[1,0.5]];portConstraint=eastwest;whiteSpace=wrap;html=1;" parent="i29WpQQr9Gu0z_t5lh4E-96" vertex="1">
          <mxGeometry y="104" width="380" height="26" as="geometry" />
        </mxCell>
        <mxCell id="i29WpQQr9Gu0z_t5lh4E-109" value="" style="line;strokeWidth=1;fillColor=none;align=left;verticalAlign=middle;spacingTop=-1;spacingLeft=3;spacingRight=3;rotatable=0;labelPosition=right;points=[];portConstraint=eastwest;strokeColor=inherit;" parent="i29WpQQr9Gu0z_t5lh4E-96" vertex="1">
          <mxGeometry y="130" width="380" height="8" as="geometry" />
        </mxCell>
        <mxCell id="i29WpQQr9Gu0z_t5lh4E-108" value="- FileViewerVM_FileSelected(string): void" style="text;strokeColor=none;fillColor=none;align=left;verticalAlign=top;spacingLeft=4;spacingRight=4;overflow=hidden;rotatable=0;points=[[0,0.5],[1,0.5]];portConstraint=eastwest;whiteSpace=wrap;html=1;" parent="i29WpQQr9Gu0z_t5lh4E-96" vertex="1">
          <mxGeometry y="138" width="380" height="26" as="geometry" />
        </mxCell>
        <mxCell id="i29WpQQr9Gu0z_t5lh4E-117" value="- WaferMapVM_DieSelected(DieViewModel): voide" style="text;strokeColor=none;fillColor=none;align=left;verticalAlign=top;spacingLeft=4;spacingRight=4;overflow=hidden;rotatable=0;points=[[0,0.5],[1,0.5]];portConstraint=eastwest;whiteSpace=wrap;html=1;" parent="i29WpQQr9Gu0z_t5lh4E-96" vertex="1">
          <mxGeometry y="164" width="380" height="26" as="geometry" />
        </mxCell>
        <mxCell id="YMv8TizBlmgqIoL7gUsq-2" style="edgeStyle=orthogonalEdgeStyle;rounded=0;orthogonalLoop=1;jettySize=auto;html=1;exitX=0.5;exitY=0;exitDx=0;exitDy=0;endArrow=diamondThin;endFill=0;startArrow=none;startFill=0;entryX=0.486;entryY=1.003;entryDx=0;entryDy=0;entryPerimeter=0;endSize=8;startSize=8;" parent="1" source="gUjudwzjFV2ijySRPbhX-18" target="gUjudwzjFV2ijySRPbhX-3" edge="1">
          <mxGeometry relative="1" as="geometry">
            <mxPoint x="551" y="1600" as="targetPoint" />
            <Array as="points" />
          </mxGeometry>
        </mxCell>
        <mxCell id="YMv8TizBlmgqIoL7gUsq-4" style="edgeStyle=orthogonalEdgeStyle;rounded=0;orthogonalLoop=1;jettySize=auto;html=1;exitX=0.5;exitY=0;exitDx=0;exitDy=0;entryX=1.022;entryY=0.063;entryDx=0;entryDy=0;entryPerimeter=0;endArrow=diamondThin;endFill=0;startArrow=none;startFill=0;endSize=8;startSize=8;dashed=1;" parent="1" source="gUjudwzjFV2ijySRPbhX-14" target="3aLNLfxiC9mMCZ3IaZ0c-22" edge="1">
          <mxGeometry relative="1" as="geometry" />
        </mxCell>
        <mxCell id="YMv8TizBlmgqIoL7gUsq-9" style="edgeStyle=orthogonalEdgeStyle;rounded=0;orthogonalLoop=1;jettySize=auto;html=1;exitX=0.466;exitY=1.083;exitDx=0;exitDy=0;entryX=0;entryY=0.5;entryDx=0;entryDy=0;exitPerimeter=0;startSize=8;startArrow=open;startFill=0;dashed=1;endArrow=none;endFill=0;" parent="1" source="3aLNLfxiC9mMCZ3IaZ0c-24" target="i29WpQQr9Gu0z_t5lh4E-16" edge="1">
          <mxGeometry relative="1" as="geometry">
            <Array as="points">
              <mxPoint x="545" y="1870" />
              <mxPoint x="912" y="1870" />
              <mxPoint x="912" y="1745" />
            </Array>
          </mxGeometry>
        </mxCell>
        <mxCell id="YMv8TizBlmgqIoL7gUsq-10" style="edgeStyle=orthogonalEdgeStyle;rounded=0;orthogonalLoop=1;jettySize=auto;html=1;entryX=0;entryY=0.5;entryDx=0;entryDy=0;startArrow=open;startFill=0;dashed=1;endArrow=none;endFill=0;" parent="1" target="i29WpQQr9Gu0z_t5lh4E-18" edge="1">
          <mxGeometry relative="1" as="geometry">
            <Array as="points">
              <mxPoint x="1010" y="1820" />
              <mxPoint x="1010" y="1797" />
            </Array>
            <mxPoint x="440" y="1820" as="sourcePoint" />
          </mxGeometry>
        </mxCell>
        <mxCell id="YMv8TizBlmgqIoL7gUsq-18" value="BaseViewModel" style="swimlane;fontStyle=1;align=center;verticalAlign=top;childLayout=stackLayout;horizontal=1;startSize=26;horizontalStack=0;resizeParent=1;resizeParentMax=0;resizeLast=0;collapsible=1;marginBottom=0;whiteSpace=wrap;html=1;fillColor=#647687;strokeColor=#314354;fontColor=#ffffff;" parent="1" vertex="1">
          <mxGeometry x="2455" y="2076" width="380" height="78" as="geometry" />
        </mxCell>
        <mxCell id="YMv8TizBlmgqIoL7gUsq-19" value="+ OnPropertyChanged(string): void" style="text;strokeColor=none;fillColor=none;align=left;verticalAlign=top;spacingLeft=4;spacingRight=4;overflow=hidden;rotatable=0;points=[[0,0.5],[1,0.5]];portConstraint=eastwest;whiteSpace=wrap;html=1;" parent="YMv8TizBlmgqIoL7gUsq-18" vertex="1">
          <mxGeometry y="26" width="380" height="26" as="geometry" />
        </mxCell>
        <mxCell id="YMv8TizBlmgqIoL7gUsq-20" value="+&amp;nbsp;PropertyChanged: event PropertyChangedEvenHandler" style="text;strokeColor=none;fillColor=none;align=left;verticalAlign=top;spacingLeft=4;spacingRight=4;overflow=hidden;rotatable=0;points=[[0,0.5],[1,0.5]];portConstraint=eastwest;whiteSpace=wrap;html=1;" parent="YMv8TizBlmgqIoL7gUsq-18" vertex="1">
          <mxGeometry y="52" width="380" height="26" as="geometry" />
        </mxCell>
        <mxCell id="YMv8TizBlmgqIoL7gUsq-21" style="edgeStyle=orthogonalEdgeStyle;rounded=0;orthogonalLoop=1;jettySize=auto;html=1;exitX=0;exitY=0.5;exitDx=0;exitDy=0;entryX=1.002;entryY=0.095;entryDx=0;entryDy=0;entryPerimeter=0;endArrow=none;endFill=0;startArrow=diamondThin;startFill=0;endSize=8;startSize=8;" parent="1" source="i29WpQQr9Gu0z_t5lh4E-105" target="i29WpQQr9Gu0z_t5lh4E-37" edge="1">
          <mxGeometry relative="1" as="geometry">
            <Array as="points">
              <mxPoint x="2340" y="1769" />
              <mxPoint x="2340" y="1615" />
            </Array>
          </mxGeometry>
        </mxCell>
        <mxCell id="YMv8TizBlmgqIoL7gUsq-22" style="edgeStyle=orthogonalEdgeStyle;rounded=0;orthogonalLoop=1;jettySize=auto;html=1;exitX=0;exitY=0.5;exitDx=0;exitDy=0;entryX=0.999;entryY=0.133;entryDx=0;entryDy=0;entryPerimeter=0;endArrow=none;endFill=0;startArrow=diamondThin;startFill=0;endSize=8;startSize=8;" parent="1" source="i29WpQQr9Gu0z_t5lh4E-106" target="i29WpQQr9Gu0z_t5lh4E-75" edge="1">
          <mxGeometry relative="1" as="geometry" />
        </mxCell>
        <mxCell id="YMv8TizBlmgqIoL7gUsq-23" style="edgeStyle=orthogonalEdgeStyle;rounded=0;orthogonalLoop=1;jettySize=auto;html=1;exitX=0;exitY=0.5;exitDx=0;exitDy=0;entryX=1;entryY=0.5;entryDx=0;entryDy=0;endArrow=none;endFill=0;startArrow=diamondThin;startFill=0;endSize=8;startSize=8;" parent="1" source="i29WpQQr9Gu0z_t5lh4E-107" target="i29WpQQr9Gu0z_t5lh4E-58" edge="1">
          <mxGeometry relative="1" as="geometry">
            <Array as="points">
              <mxPoint x="2295" y="1795" />
              <mxPoint x="2295" y="1825" />
            </Array>
          </mxGeometry>
        </mxCell>
        <mxCell id="YMv8TizBlmgqIoL7gUsq-24" style="edgeStyle=orthogonalEdgeStyle;rounded=0;orthogonalLoop=1;jettySize=auto;html=1;exitX=0;exitY=1.047;exitDx=0;exitDy=0;entryX=0.75;entryY=0;entryDx=0;entryDy=0;endArrow=open;endFill=0;startSize=8;endSize=8;dashed=1;exitPerimeter=0;" parent="1" source="i29WpQQr9Gu0z_t5lh4E-59" target="gUjudwzjFV2ijySRPbhX-14" edge="1">
          <mxGeometry relative="1" as="geometry">
            <Array as="points">
              <mxPoint x="1695" y="1865" />
              <mxPoint x="1695" y="1560" />
              <mxPoint x="828" y="1560" />
            </Array>
          </mxGeometry>
        </mxCell>
        <mxCell id="YMv8TizBlmgqIoL7gUsq-28" value="WaferMapService" style="swimlane;fontStyle=1;align=center;verticalAlign=top;childLayout=stackLayout;horizontal=1;startSize=26;horizontalStack=0;resizeParent=1;resizeParentMax=0;resizeLast=0;collapsible=1;marginBottom=0;whiteSpace=wrap;html=1;fillColor=#fad9d5;strokeColor=#ae4132;" parent="1" vertex="1">
          <mxGeometry x="1165" y="1860" width="380" height="80" as="geometry" />
        </mxCell>
        <mxCell id="YMv8TizBlmgqIoL7gUsq-29" value="+ CalculateWaferMapRender(KlarfData, double) : WaferMapRender" style="text;strokeColor=none;fillColor=none;align=left;verticalAlign=top;spacingLeft=4;spacingRight=4;overflow=hidden;rotatable=0;points=[[0,0.5],[1,0.5]];portConstraint=eastwest;whiteSpace=wrap;html=1;" parent="YMv8TizBlmgqIoL7gUsq-28" vertex="1">
          <mxGeometry y="26" width="380" height="26" as="geometry" />
        </mxCell>
        <mxCell id="YMv8TizBlmgqIoL7gUsq-34" value="- CreateDefaultDieInfos(): List&amp;lt;DieInfo&amp;gt;&amp;nbsp;" style="text;strokeColor=none;fillColor=none;align=left;verticalAlign=top;spacingLeft=4;spacingRight=4;overflow=hidden;rotatable=0;points=[[0,0.5],[1,0.5]];portConstraint=eastwest;whiteSpace=wrap;html=1;" parent="YMv8TizBlmgqIoL7gUsq-28" vertex="1">
          <mxGeometry y="52" width="380" height="28" as="geometry" />
        </mxCell>
        <mxCell id="YMv8TizBlmgqIoL7gUsq-35" style="edgeStyle=orthogonalEdgeStyle;rounded=0;orthogonalLoop=1;jettySize=auto;html=1;exitX=1;exitY=0.5;exitDx=0;exitDy=0;entryX=0;entryY=0.5;entryDx=0;entryDy=0;endArrow=none;endFill=0;startArrow=open;startFill=0;dashed=1;endSize=8;startSize=8;" parent="1" source="YMv8TizBlmgqIoL7gUsq-15" target="YMv8TizBlmgqIoL7gUsq-29" edge="1">
          <mxGeometry relative="1" as="geometry">
            <Array as="points">
              <mxPoint x="965" y="1493" />
              <mxPoint x="965" y="1899" />
            </Array>
          </mxGeometry>
        </mxCell>
        <mxCell id="YMv8TizBlmgqIoL7gUsq-36" value="ImageInteractionBehavior" style="swimlane;fontStyle=1;align=center;verticalAlign=top;childLayout=stackLayout;horizontal=1;startSize=26;horizontalStack=0;resizeParent=1;resizeParentMax=0;resizeLast=0;collapsible=1;marginBottom=0;whiteSpace=wrap;html=1;fillColor=#fad9d5;strokeColor=#ae4132;" parent="1" vertex="1" collapsed="1">
          <mxGeometry x="1265" y="1630" width="180" height="30" as="geometry">
            <mxRectangle x="1230" y="670" width="380" height="80" as="alternateBounds" />
          </mxGeometry>
        </mxCell>
        <mxCell id="YMv8TizBlmgqIoL7gUsq-37" value="+ CalculateWaferMapRender(KlarfData, double) : WaferMapRender" style="text;strokeColor=none;fillColor=none;align=left;verticalAlign=top;spacingLeft=4;spacingRight=4;overflow=hidden;rotatable=0;points=[[0,0.5],[1,0.5]];portConstraint=eastwest;whiteSpace=wrap;html=1;" parent="YMv8TizBlmgqIoL7gUsq-36" vertex="1">
          <mxGeometry y="26" width="380" height="26" as="geometry" />
        </mxCell>
        <mxCell id="YMv8TizBlmgqIoL7gUsq-38" value="- CreateDefaultDieInfos(): List&amp;lt;DieInfo&amp;gt;&amp;nbsp;" style="text;strokeColor=none;fillColor=none;align=left;verticalAlign=top;spacingLeft=4;spacingRight=4;overflow=hidden;rotatable=0;points=[[0,0.5],[1,0.5]];portConstraint=eastwest;whiteSpace=wrap;html=1;" parent="YMv8TizBlmgqIoL7gUsq-36" vertex="1">
          <mxGeometry y="52" width="380" height="28" as="geometry" />
        </mxCell>
        <mxCell id="YMv8TizBlmgqIoL7gUsq-40" style="edgeStyle=orthogonalEdgeStyle;rounded=0;orthogonalLoop=1;jettySize=auto;html=1;exitX=1;exitY=0.5;exitDx=0;exitDy=0;entryX=0.092;entryY=0.005;entryDx=0;entryDy=0;entryPerimeter=0;endArrow=diamondThin;endFill=0;endSize=8;startSize=8;" parent="1" source="i29WpQQr9Gu0z_t5lh4E-22" target="i29WpQQr9Gu0z_t5lh4E-96" edge="1">
          <mxGeometry relative="1" as="geometry" />
        </mxCell>
        <mxCell id="YMv8TizBlmgqIoL7gUsq-41" style="edgeStyle=orthogonalEdgeStyle;rounded=0;orthogonalLoop=1;jettySize=auto;html=1;exitX=0.5;exitY=0;exitDx=0;exitDy=0;entryX=0.503;entryY=1.154;entryDx=0;entryDy=0;entryPerimeter=0;endArrow=diamondThin;endFill=0;endSize=8;" parent="1" source="i29WpQQr9Gu0z_t5lh4E-60" target="YMv8TizBlmgqIoL7gUsq-27" edge="1">
          <mxGeometry relative="1" as="geometry" />
        </mxCell>
        <mxCell id="YMv8TizBlmgqIoL7gUsq-42" style="edgeStyle=orthogonalEdgeStyle;rounded=0;orthogonalLoop=1;jettySize=auto;html=1;exitX=1;exitY=0.5;exitDx=0;exitDy=0;entryX=0;entryY=0.5;entryDx=0;entryDy=0;endArrow=block;endFill=0;startSize=8;endSize=8;" parent="1" source="i29WpQQr9Gu0z_t5lh4E-90" target="YMv8TizBlmgqIoL7gUsq-18" edge="1">
          <mxGeometry relative="1" as="geometry" />
        </mxCell>
        <mxCell id="YMv8TizBlmgqIoL7gUsq-43" style="edgeStyle=orthogonalEdgeStyle;rounded=0;orthogonalLoop=1;jettySize=auto;html=1;exitX=0;exitY=0.5;exitDx=0;exitDy=0;endArrow=block;endFill=0;endSize=8;startSize=8;" parent="1" source="i29WpQQr9Gu0z_t5lh4E-117" target="YMv8TizBlmgqIoL7gUsq-18" edge="1">
          <mxGeometry relative="1" as="geometry" />
        </mxCell>
        <mxCell id="YMv8TizBlmgqIoL7gUsq-45" style="edgeStyle=orthogonalEdgeStyle;rounded=0;orthogonalLoop=1;jettySize=auto;html=1;exitX=1;exitY=0.5;exitDx=0;exitDy=0;entryX=0.271;entryY=0.034;entryDx=0;entryDy=0;entryPerimeter=0;endArrow=block;endFill=0;endSize=8;startSize=8;" parent="1" source="i29WpQQr9Gu0z_t5lh4E-49" target="YMv8TizBlmgqIoL7gUsq-18" edge="1">
          <mxGeometry relative="1" as="geometry" />
        </mxCell>
        <mxCell id="YMv8TizBlmgqIoL7gUsq-46" style="edgeStyle=orthogonalEdgeStyle;rounded=0;orthogonalLoop=1;jettySize=auto;html=1;exitX=0;exitY=0.5;exitDx=0;exitDy=0;entryX=1;entryY=0.5;entryDx=0;entryDy=0;dashed=1;endArrow=open;endFill=0;" parent="1" source="i29WpQQr9Gu0z_t5lh4E-22" target="YMv8TizBlmgqIoL7gUsq-29" edge="1">
          <mxGeometry relative="1" as="geometry">
            <Array as="points">
              <mxPoint x="1625" y="1449" />
              <mxPoint x="1625" y="1899" />
            </Array>
          </mxGeometry>
        </mxCell>
        <mxCell id="YMv8TizBlmgqIoL7gUsq-74" style="edgeStyle=orthogonalEdgeStyle;rounded=0;orthogonalLoop=1;jettySize=auto;html=1;exitX=0;exitY=0.5;exitDx=0;exitDy=0;entryX=0.5;entryY=0;entryDx=0;entryDy=0;endArrow=open;endFill=0;" parent="1" source="YMv8TizBlmgqIoL7gUsq-47" target="YMv8TizBlmgqIoL7gUsq-36" edge="1">
          <mxGeometry relative="1" as="geometry" />
        </mxCell>
        <mxCell id="YMv8TizBlmgqIoL7gUsq-47" value="&lt;i&gt;&amp;lt;&amp;lt;DefectImageViewer&amp;gt;&amp;gt;&lt;/i&gt;" style="swimlane;fontStyle=1;align=center;verticalAlign=top;childLayout=stackLayout;horizontal=1;startSize=26;horizontalStack=0;resizeParent=1;resizeParentMax=0;resizeLast=0;collapsible=1;marginBottom=0;whiteSpace=wrap;html=1;fillColor=#fff2cc;strokeColor=#d6b656;" parent="1" vertex="1">
          <mxGeometry x="1625" y="1090" width="200" height="52" as="geometry" />
        </mxCell>
        <mxCell id="YMv8TizBlmgqIoL7gUsq-52" value="&lt;i&gt;&amp;lt;&amp;lt;DefectListViewer&amp;gt;&amp;gt;&lt;/i&gt;" style="swimlane;fontStyle=1;align=center;verticalAlign=top;childLayout=stackLayout;horizontal=1;startSize=26;horizontalStack=0;resizeParent=1;resizeParentMax=0;resizeLast=0;collapsible=1;marginBottom=0;whiteSpace=wrap;html=1;fillColor=#fff2cc;strokeColor=#d6b656;" parent="1" vertex="1">
          <mxGeometry x="1865" y="1090" width="200" height="52" as="geometry" />
        </mxCell>
        <mxCell id="YMv8TizBlmgqIoL7gUsq-57" value="&lt;i&gt;&amp;lt;&amp;lt;WaferMapViewer&amp;gt;&amp;gt;&lt;/i&gt;" style="swimlane;fontStyle=1;align=center;verticalAlign=top;childLayout=stackLayout;horizontal=1;startSize=26;horizontalStack=0;resizeParent=1;resizeParentMax=0;resizeLast=0;collapsible=1;marginBottom=0;whiteSpace=wrap;html=1;fillColor=#fff2cc;strokeColor=#d6b656;" parent="1" vertex="1">
          <mxGeometry x="2105" y="1090" width="200" height="52" as="geometry" />
        </mxCell>
        <mxCell id="YMv8TizBlmgqIoL7gUsq-62" value="&lt;i&gt;&amp;lt;&amp;lt;FileListViewer&amp;gt;&amp;gt;&lt;/i&gt;" style="swimlane;fontStyle=1;align=center;verticalAlign=top;childLayout=stackLayout;horizontal=1;startSize=26;horizontalStack=0;resizeParent=1;resizeParentMax=0;resizeLast=0;collapsible=1;marginBottom=0;whiteSpace=wrap;html=1;fillColor=#fff2cc;strokeColor=#d6b656;" parent="1" vertex="1">
          <mxGeometry x="2345" y="1090" width="200" height="52" as="geometry" />
        </mxCell>
        <mxCell id="YMv8TizBlmgqIoL7gUsq-68" style="edgeStyle=orthogonalEdgeStyle;rounded=0;orthogonalLoop=1;jettySize=auto;html=1;exitX=0;exitY=0.5;exitDx=0;exitDy=0;entryX=1;entryY=0.5;entryDx=0;entryDy=0;endArrow=none;endFill=0;startArrow=open;startFill=0;" parent="1" source="i29WpQQr9Gu0z_t5lh4E-39" target="YMv8TizBlmgqIoL7gUsq-36" edge="1">
          <mxGeometry relative="1" as="geometry" />
        </mxCell>
        <mxCell id="YMv8TizBlmgqIoL7gUsq-70" style="edgeStyle=orthogonalEdgeStyle;rounded=0;orthogonalLoop=1;jettySize=auto;html=1;exitX=-0.005;exitY=0.319;exitDx=0;exitDy=0;entryX=0.5;entryY=1;entryDx=0;entryDy=0;exitPerimeter=0;" parent="1" source="i29WpQQr9Gu0z_t5lh4E-39" target="YMv8TizBlmgqIoL7gUsq-52" edge="1">
          <mxGeometry relative="1" as="geometry">
            <Array as="points">
              <mxPoint x="1815" y="1662" />
              <mxPoint x="1815" y="1250" />
              <mxPoint x="1965" y="1250" />
            </Array>
          </mxGeometry>
        </mxCell>
        <mxCell id="YMv8TizBlmgqIoL7gUsq-73" style="edgeStyle=orthogonalEdgeStyle;rounded=0;orthogonalLoop=1;jettySize=auto;html=1;exitX=1;exitY=0.5;exitDx=0;exitDy=0;entryX=0.5;entryY=1;entryDx=0;entryDy=0;" parent="1" source="i29WpQQr9Gu0z_t5lh4E-84" target="YMv8TizBlmgqIoL7gUsq-62" edge="1">
          <mxGeometry relative="1" as="geometry">
            <Array as="points">
              <mxPoint x="2365" y="2285" />
              <mxPoint x="2365" y="1200" />
              <mxPoint x="2445" y="1200" />
            </Array>
          </mxGeometry>
        </mxCell>
        <mxCell id="YMv8TizBlmgqIoL7gUsq-76" value="&lt;font style=&quot;font-size: 28px;&quot;&gt;&lt;b style=&quot;&quot;&gt;MainView&lt;/b&gt;&lt;/font&gt;" style="text;html=1;align=center;verticalAlign=middle;resizable=0;points=[];autosize=1;strokeColor=none;fillColor=none;" parent="1" vertex="1">
          <mxGeometry x="1460" y="1060" width="150" height="50" as="geometry" />
        </mxCell>
        <mxCell id="YMv8TizBlmgqIoL7gUsq-77" value="&lt;font style=&quot;font-size: 28px;&quot;&gt;&lt;b style=&quot;&quot;&gt;ViewModel&lt;/b&gt;&lt;/font&gt;" style="text;html=1;align=center;verticalAlign=middle;resizable=0;points=[];autosize=1;strokeColor=none;fillColor=none;" parent="1" vertex="1">
          <mxGeometry x="2645" y="1380" width="170" height="50" as="geometry" />
        </mxCell>
        <mxCell id="YMv8TizBlmgqIoL7gUsq-78" value="&lt;font style=&quot;font-size: 28px;&quot;&gt;&lt;b style=&quot;&quot;&gt;Service&lt;/b&gt;&lt;/font&gt;" style="text;html=1;align=center;verticalAlign=middle;resizable=0;points=[];autosize=1;strokeColor=none;fillColor=none;" parent="1" vertex="1">
          <mxGeometry x="1130" y="1590" width="120" height="50" as="geometry" />
        </mxCell>
        <mxCell id="YMv8TizBlmgqIoL7gUsq-79" value="&lt;font style=&quot;font-size: 28px;&quot;&gt;&lt;b style=&quot;&quot;&gt;Model&lt;/b&gt;&lt;/font&gt;" style="text;html=1;align=center;verticalAlign=middle;resizable=0;points=[];autosize=1;strokeColor=none;fillColor=none;" parent="1" vertex="1">
          <mxGeometry x="280" y="1430" width="100" height="50" as="geometry" />
        </mxCell>
        <mxCell id="YMv8TizBlmgqIoL7gUsq-80" style="edgeStyle=orthogonalEdgeStyle;rounded=0;orthogonalLoop=1;jettySize=auto;html=1;exitX=1;exitY=0.5;exitDx=0;exitDy=0;entryX=0;entryY=0.25;entryDx=0;entryDy=0;endArrow=block;endFill=0;endSize=8;" parent="1" source="i29WpQQr9Gu0z_t5lh4E-40" target="YMv8TizBlmgqIoL7gUsq-18" edge="1">
          <mxGeometry relative="1" as="geometry">
            <Array as="points">
              <mxPoint x="2320" y="1693" />
              <mxPoint x="2320" y="2095" />
            </Array>
          </mxGeometry>
        </mxCell>
        <mxCell id="YMv8TizBlmgqIoL7gUsq-81" value="FileSystemService" style="swimlane;fontStyle=1;align=center;verticalAlign=top;childLayout=stackLayout;horizontal=1;startSize=26;horizontalStack=0;resizeParent=1;resizeParentMax=0;resizeLast=0;collapsible=1;marginBottom=0;whiteSpace=wrap;html=1;fillColor=#fad9d5;strokeColor=#ae4132;" parent="1" vertex="1">
          <mxGeometry x="1165" y="1980" width="380" height="80" as="geometry" />
        </mxCell>
        <mxCell id="YMv8TizBlmgqIoL7gUsq-82" value="+ LoadSubDirectories(): void" style="text;strokeColor=none;fillColor=none;align=left;verticalAlign=top;spacingLeft=4;spacingRight=4;overflow=hidden;rotatable=0;points=[[0,0.5],[1,0.5]];portConstraint=eastwest;whiteSpace=wrap;html=1;" parent="YMv8TizBlmgqIoL7gUsq-81" vertex="1">
          <mxGeometry y="26" width="380" height="26" as="geometry" />
        </mxCell>
        <mxCell id="YMv8TizBlmgqIoL7gUsq-83" value="+ GetFiles(string):&amp;nbsp;&amp;nbsp;IEnumerable&amp;lt;FileSystemObjectViewModel&amp;gt;&amp;nbsp;" style="text;strokeColor=none;fillColor=none;align=left;verticalAlign=top;spacingLeft=4;spacingRight=4;overflow=hidden;rotatable=0;points=[[0,0.5],[1,0.5]];portConstraint=eastwest;whiteSpace=wrap;html=1;" parent="YMv8TizBlmgqIoL7gUsq-81" vertex="1">
          <mxGeometry y="52" width="380" height="28" as="geometry" />
        </mxCell>
        <mxCell id="YMv8TizBlmgqIoL7gUsq-84" style="edgeStyle=orthogonalEdgeStyle;rounded=0;orthogonalLoop=1;jettySize=auto;html=1;exitX=1;exitY=0.5;exitDx=0;exitDy=0;entryX=0;entryY=0.5;entryDx=0;entryDy=0;startArrow=open;startFill=0;endArrow=open;endFill=0;dashed=1;startSize=8;endSize=8;" parent="1" source="YMv8TizBlmgqIoL7gUsq-82" target="i29WpQQr9Gu0z_t5lh4E-90" edge="1">
          <mxGeometry relative="1" as="geometry" />
        </mxCell>
        <mxCell id="YMv8TizBlmgqIoL7gUsq-85" style="edgeStyle=orthogonalEdgeStyle;rounded=0;orthogonalLoop=1;jettySize=auto;html=1;exitX=0.508;exitY=1.166;exitDx=0;exitDy=0;startArrow=open;startFill=0;endArrow=diamondThin;endFill=0;dashed=1;startSize=8;endSize=8;exitPerimeter=0;entryX=-0.013;entryY=-0.077;entryDx=0;entryDy=0;entryPerimeter=0;" parent="1" source="YMv8TizBlmgqIoL7gUsq-83" target="i29WpQQr9Gu0z_t5lh4E-84" edge="1">
          <mxGeometry relative="1" as="geometry">
            <mxPoint x="1250" y="2076.0040000000004" as="sourcePoint" />
            <mxPoint x="1711.62" y="2291.7840000000006" as="targetPoint" />
            <Array as="points">
              <mxPoint x="1358" y="2272" />
              <mxPoint x="1712" y="2272" />
              <mxPoint x="1712" y="2270" />
            </Array>
          </mxGeometry>
        </mxCell>
        <mxCell id="nmG_gIvbDKn6ohxfI6vR-7" style="edgeStyle=orthogonalEdgeStyle;rounded=0;orthogonalLoop=1;jettySize=auto;html=1;exitX=1;exitY=0.5;exitDx=0;exitDy=0;entryX=0.118;entryY=0.038;entryDx=0;entryDy=0;entryPerimeter=0;endArrow=block;endFill=0;endSize=8;" parent="1" source="i29WpQQr9Gu0z_t5lh4E-60" target="YMv8TizBlmgqIoL7gUsq-18" edge="1">
          <mxGeometry relative="1" as="geometry">
            <Array as="points">
              <mxPoint x="2400" y="1575" />
              <mxPoint x="2400" y="2030" />
              <mxPoint x="2500" y="2030" />
            </Array>
          </mxGeometry>
        </mxCell>
      </root>
    </mxGraphModel>
  </diagram>
</mxfile>
